<svg width="22" height="20" viewBox="0 0 22 20" xmlns="http://www.w3.org/2000/svg" xmlns:xlink="http://www.w3.org/1999/xlink"><defs><path d="M9.75 18.7265625c.8284271 0 1.5.6715729 1.5 1.5s-.6715729 1.5-1.5 1.5-1.5-.6715729-1.5-1.5.6715729-1.5 1.5-1.5zm7.5 0c.8284271 0 1.5.6715729 1.5 1.5s-.6715729 1.5-1.5 1.5-1.5-.6715729-1.5-1.5.6715729-1.5 1.5-1.5zM5.0859375 2.25c.382702 0 .6991063.2882563.75.65625L6.140625 4.5h.0234375L8.25 15h10.9453125l1.78125-9h-12.5625V4.5h12.5625c.8285323 0 1.5.6715729 1.5 1.5 0 .0975646-.0095173.1948965-.0234375.28125l-1.78125 9c-.1395744.7121758-.7558757 1.21875-1.4765625 1.21875H8.25c-.7268706 0-1.3428873-.5058813-1.4765625-1.21875L4.78125 5.296875 4.4765625 3.75h-1.5c-.8285323 0-1.5-.6715729-1.5-1.5h3.609375z" id="a"/></defs><use fill-opacity=".85" xlink:href="#a" transform="translate(-1 -2)" fill-rule="evenodd"/></svg>