<svg xmlns="http://www.w3.org/2000/svg" xmlns:xlink="http://www.w3.org/1999/xlink" width="150" height="24" viewBox="0 0 150 24"><defs><path id="a" d="M34.5718685.00081v17.0772814c0 2.278951-.6514808 4.0192163-1.9503364 5.2207959C31.4266944 23.4329624 29.7774626 24 27.6752052 24c-1.668393 0-3.105483-.3915259-4.3099013-1.1732277-1.0593406-.6804451-1.8914841-1.6214574-2.5019052-2.8243871l3.0343128-1.8536728c.4721868.8397556.9539541 1.4567465 1.4494079 1.8536728.6076838.4657808 1.3275975.6979962 2.155635.6979962 2.2172246 0 3.3272055-1.2299315 3.3272055-3.6911445V.0008101h3.7419086zM6.6037707 0c3.8390832 0 6.9377229 1.0841218 9.2931819 3.2496653 2.3445096 2.1776943 3.5188174 5.0466343 3.5188174 8.6054701 0 3.5493851-1.1619899 6.4021241-3.4832324 8.5555168-2.3581962 2.188495-5.4664165 3.2820674-9.328767 3.2820674H0V0zM44 .00054v23.6913696h-3.7063235V.00054H44zM6.3634345 3.2503403H3.742456v17.2109403h2.6209784c3.0110456 0 5.3158642-.8046533 6.9130871-2.41396 1.5055229-1.5080499 2.2582843-3.5723366 2.2582843-6.1915102 0-2.6299742-.7527614-4.6996613-2.2582843-6.2077112-1.5972229-1.598506-3.9020415-2.3977589-6.9130871-2.3977589z"/></defs><g fill="#141414" fill-rule="evenodd"><use xlink:href="#a"/><path d="M54 24h3.5534944l1.7342348-4.3328632h10.06531L71.1034693 24h3.8261134L64.5579137 0H64.13279L54 24zm6.5455556-7.402426l2.5844822-6.4654442c.2267327-.5565022.481807-1.301213.7652227-2.2341326l.373839-1.2619464c.0229432.135402.1646511.5795204.4251237 1.3296474.2712694.8868829.5263436 1.6099294.7652227 2.1664316l2.5669374 6.4654442h-7.4808277zM78.3535156 24h3.6547143V.2383075h-3.6547143V24zm9.3378761 0h3.6898039v-8.8011283h4.2836275L100.7825028 24H105l-5.5765434-9.3982511c3.2066474-1.1143582 4.8113207-3.3836953 4.8113207-6.8066572 0-2.5130607-.8273042-4.4235825-2.4832623-5.7315656C100.2440128.8476164 98.2047686.2383075 95.6310831.2383075h-7.9396914V24zm3.6898039-11.9058956V3.497433h4.1149276c3.2970706 0 4.9462807 1.4325529 4.9462807 4.2976587 0 2.8664598-1.6492101 4.2990127-4.9462807 4.2990127h-4.1149276zM115 23.7299465h16.7356847v-3.2005347h-7.6821078c-.3841725 0-.8408812.0227272-1.3714691.0681818l-.6770034.0668449c0 .0120321.2041756-.1403743.6098403-.4545455.4513356-.3596256.8234188-.6898395 1.1162497-.9933155l3.9599324-4.1430481c2.7187596-2.8636364 4.0781394-5.5414438 4.0781394-8.0334224 0-2.0775402-.6770034-3.7673797-2.0296669-5.0695188C128.3520111.6564172 126.5130872 0 124.2228278 0c-2.2338425 0-4.106348.645722-5.6188594 1.9371658-1.4211698 1.223262-2.3466764 2.868984-2.7751766 4.934492l3.6388932.8248663c.7334203-2.8970589 2.3184679-4.3449198 4.7551428-4.3449198 2.5374194 0 3.8068007 1.2406417 3.8068007 3.7219251 0 1.830214-1.1108766 3.8957219-3.333973 6.197861L115 23.4264706v.3034759zM143.0284771 24c2.0525023 0 3.7221753-.540107 5.0090191-1.6176471C149.3458321 21.2713904 150 19.8114973 150 18.0040107c0-2.9411765-1.8845947-5.2660428-5.6524409-6.973262l-2.1827986-.9933155c-2.7295057-1.2566845-4.0942585-2.868984-4.0942585-4.8328878 0-2.6390374 1.4654974-3.9585561 4.3991787-3.9585561 1.195502 0 2.2217531.2807487 3.0800967.842246.664914.4491979 1.2801274 1.1229946 1.8442969 2.0213904l1.1162496-.724599c-.6420786-1.0213903-1.3929613-1.8074866-2.2499616-2.3582887C145.1884403.342246 143.924432 0 142.4696807 0c-1.6360915 0-2.9954713.4652406-4.0781394 1.3983957-1.1404283.987968-1.7086276 2.2673797-1.7086276 3.8395722 0 2.5147059 1.6401213 4.5307487 4.9230504 6.0454546l2.1841418.9946524c3.2144228 1.4812834 4.8223058 3.3903743 4.8223058 5.7259358 0 1.447861-.5534234 2.6096257-1.6589269 3.486631-1.0490866.8529412-2.3681686 1.2794118-3.9599325 1.2794118-1.7260899 0-3.1700951-.4157754-4.3320156-1.2459893-.8905818-.6403744-1.6629567-1.5721925-2.3171247-2.7967915l-1.2183374.5895722c.664914 1.3596257 1.5675852 2.4318182 2.7066703 3.2179145C139.2431686 23.5106952 140.9746316 24 143.0284771 24z"/></g></svg>