<svg width="192" height="28" viewBox="0 0 192 28" xmlns="http://www.w3.org/2000/svg" xmlns:xlink="http://www.w3.org/1999/xlink"><defs><path d="M40.385623.000945V19.92444c0 2.6587761-.7610366 4.6890856-2.2783134 6.0909285C36.7115429 27.3384562 34.7849691 28 32.3291871 28c-1.9489572 0-3.6277144-.4567803-5.0346729-1.3687657-1.2374839-.7938526-2.2095643-1.8917003-2.9226364-3.2951183l3.544576-2.1626183c.5515917.979715 1.114375 1.6995376 1.6931466 2.1626183.7098745.543411 1.5508519.814329 2.5181358.814329 2.5900826 0 3.8867227-1.4349201 3.8867227-4.3063353V.0009451h4.3711641zM7.7142892 0c4.4846801 0 8.1044004 1.2648088 10.8559635 3.7912762 2.7387725 2.5406433 4.110557 5.88774 4.110557 10.0397151 0 4.1409493-1.3573952 7.4691448-4.0689878 9.9814363-2.7547607 2.5532441-6.3856728 3.8290786-10.8975327 3.8290786H0V0zm43.6849406.00063v27.6399312h-4.3295949V.00063h4.3295949zM7.433537 3.7920637H4.3718036V23.871494H7.433537c3.5173962 0 6.209803-.9387622 8.0756218-2.8162866 1.758698-1.7593916 2.638047-4.1677261 2.638047-7.2234285 0-3.0683033-.879349-5.4829383-2.638047-7.2423298C13.64334 4.7245254 10.9509332 3.7920636 7.433537 3.7920636z" id="a"/></defs><g fill="#141414" fill-rule="evenodd"><path d="M161.0924989 28c2.3976166 0 4.3480338-.6285651 5.8512516-1.8856952 1.5283237-1.2976827 2.2924855-2.9993315 2.2924855-5.1096257 0-3.4313725-2.1999074-6.1421568-6.6012913-8.1339126l-2.5498214-1.1588681c-3.1900226-1.4676916-4.7842494-3.347148-4.7842494-5.6399287 0-3.0773173 1.71348-4.6167558 5.1388707-4.6167558 1.3965176 0 2.596895.3275401 3.5979941.9810606.7767148.5240642 1.4953722 1.3101604 2.1544029 2.3582888l1.3055085-.8453654c-.7516088-1.1916221-1.6287474-2.1087344-2.6298465-2.7497772C163.6156452.4008467 162.1406716 0 160.4397446 0c-1.9111892 0-3.4991395.5443405-4.7638508 1.6314617-1.3306145 1.1526292-1.9959218 2.6452763-1.9959218 4.4795009 0 2.9353832 1.9174657 5.2858734 5.752397 7.05459l2.5498214 1.1588681c3.7549062 1.7297237 5.6331438 3.9554367 5.6331438 6.6802584 0 1.6907309-.6449087 3.046123-1.9362951 4.0677362-1.2254834.9950981-2.7679292 1.4926471-4.6257682 1.4926471-2.0163203 0-3.7031252-.4835116-5.0604147-1.4536542-1.0418963-.7471034-1.9441407-1.8342246-2.7083026-3.2613636l-1.4231926.6878342c.7767148 1.5846702 1.831164 2.8355615 3.1633476 3.7526738C156.6707164 27.4307041 158.6933131 28 161.092499 28zm13.842784-.3150624h16.6436647v-1.4536542h-14.9835348V14.6394831h12.9091571v-1.4349376h-12.9091571V1.7687165h14.4108057V.3150625h-16.0709356v27.3698752z"/><use xlink:href="#a"/><path d="M65.417202 27.7247081h4.0992461V13.4783532c0-.6178426-.0267205-1.4515391-.0801616-2.5026535l-.0785899-1.4186917.8912088 1.2607117c.5941392.8540305 1.1081168 1.5250544 1.5435045 2.0099436l6.931624 8.3150662h.4746827l6.9504855-8.3150662c.4479621-.4848892.9823731-1.1684264 1.6032328-2.0490476l.8519139-1.2216077-.0801617 1.4186917c-.0518693 1.0511144-.0785898 1.8848109-.0785898 2.5026535v14.2463549h4.0992461V0h-.4353877L79.0399651 15.3303167 65.8730231 0h-.4558211v27.7247081zm33.7889164 0h4.2564258V.2752919h-4.2564258V27.724708zM130.1469389 28h.5344109V.2752919h-3.9797895v15.0941288c0 .6444333.0581564 1.4922071.177613 2.5417574 0 .197084.0125744.3879113.0392949.572482 0 .1564159.0125744.3081392.0392949.4520418l.0408668.3941679-.8912088-1.1230657c-.6868753-.8399531-1.2417195-1.490643-1.6645329-1.9505056L109.2357539 0h-.5737058v27.7247081h3.9797895V12.5914753c0-.6960505-.0392949-1.5688509-.1178847-2.6199653l-.1791849-1.3404838.8912088 1.1027317c.6868753.8274398 1.2542939 1.4843863 1.7038278 1.9708396L130.1469389 28zm5.7763533-.2752919h4.2564258V.2752919h-4.2564258V27.724708z"/></g></svg>