<svg width="171" height="28" viewBox="0 0 171 28" xmlns="http://www.w3.org/2000/svg" xmlns:xlink="http://www.w3.org/1999/xlink"><defs><path d="M0 28h18.7021985v-3.7764507h-8.586289c-.4278134 0-.9381872.0268169-1.5311215.0804507l-.7565542.0788732c0 .0141972.226666-.1656338.6814992-.536338.5028683-.424338.920174-.8139718 1.2474137-1.1720563l4.4252413-4.8885634c3.0382253-3.3789296 4.557338-6.5385916 4.557338-9.478986 0-2.4513802-.7565541-4.4452957-2.2696624-5.9817464C14.9194278.7745352 12.8644226 0 10.305048 0 7.8102206 0 5.7161869.7619155 4.02745 2.2857465 2.4392866 3.7291268 1.405029 5.6709859.9261783 8.108169l4.0649774.9732958c.8196003-3.4183662 2.5908977-5.1267606 5.3138922-5.1267606 2.837078 0 4.255617 1.4638874 4.255617 4.391662 0 2.1595493-1.2414092 4.5967324-3.7257289 7.3131268L0 27.6419155V28z" id="a"/><path d="M40.491709.000945V19.92444c0 2.6587761-.7630357 4.6890856-2.2842981 6.0909285C36.8079777 27.3384562 34.8763431 28 32.4141102 28c-1.9540768 0-3.6372438-.4567803-5.0478981-1.3687657-1.2407345-.7938526-2.2153684-1.8917003-2.9303136-3.2951183l3.5538869-2.1626183c.5530406.979715 1.1173023 1.6995376 1.6975942 2.1626183.7117392.543411 1.5549258.814329 2.5247506.814329 2.5968863 0 3.8969324-1.4349201 3.8969324-4.3063353V.0009451h4.3826464zM7.7345533 0c4.4964605 0 8.1256893 1.2648088 10.8844802 3.7912762 2.7459668 2.5406433 4.1213547 5.88774 4.1213547 10.0397151 0 4.1409493-1.3609608 7.4691448-4.0796763 9.9814363-2.761997 2.5532441-6.4024468 3.8290786-10.9261586 3.8290786H0V0zm43.7996933.00063v27.6399312h-4.340968V.00063h4.340968zM7.4530636 3.7920637h-3.069776V23.871494h3.069776c3.5266357 0 6.2261151-.9387622 8.096835-2.8162866 1.7633179-1.7593916 2.6449768-4.1677261 2.6449768-7.2234285 0-3.0683033-.8816589-5.4829383-2.6449768-7.2423298-1.8707199-1.8649236-4.5701993-2.7973854-8.096835-2.7973854z" id="b"/></defs><g fill="#141414" fill-rule="evenodd"><use xlink:href="#a" transform="translate(152.260274)"/><use xlink:href="#b"/><path d="M65.589041 27.7247081h4.1100141V13.4783532c0-.6178426-.0267907-1.4515391-.0803722-2.5026535l-.0787963-1.4186917.8935499 1.2607117c.5956999.8540305 1.1110276 1.5250544 1.547559 2.0099436l6.9498322 8.3150662h.4759295l6.9687433-8.3150662c.4491388-.4848892.9849535-1.1684264 1.6074442-2.0490476l.8541517-1.2216077-.0803722 1.4186917c-.0520056 1.0511144-.0787963 1.8848109-.0787963 2.5026535v14.2463549h4.1100141V0h-.4365314L79.2475887 15.3303167 66.0460594 0h-.4570184v27.7247081zm33.877674 0h4.2676066V.2752919H99.466715V27.724708zM130.4888116 28h.5358147V.2752919h-3.9902437v15.0941288c0 .6444333.0583092 1.4922071.1780796 2.5417574 0 .197084.0126074.3879113.0393981.572482 0 .1564159.0126074.3081392.0393981.4520418l.0409741.3941679-.8935498-1.1230657c-.6886796-.8399531-1.2449813-1.490643-1.6689053-1.9505056L109.5226966 0h-.5752129v27.7247081h3.9902438V12.5914753c0-.6960505-.0393981-1.5688509-.1181944-2.6199653l-.1796555-1.3404838.8935498 1.1027317c.6886795.8274398 1.2575887 1.4843863 1.7083034 1.9708396L130.4888116 28zm5.7915268-.2752919h4.2676067V.2752919h-4.2676067V27.724708z"/></g></svg>