<svg width="16" height="16" viewBox="0 0 16 16" xmlns="http://www.w3.org/2000/svg" xmlns:xlink="http://www.w3.org/1999/xlink"><defs><path d="M2.8571429 6.1392045v5.4971591c0 .2510885.191878.4545455.4285714.4545455h9.4285714c.2366935 0 .4285714-.203457.4285714-.4545455V6.125L8.6964286 9.1789773c-.4233715.283907-.9691628.2841869-1.3928572 0L2.857143 6.1392045zM3.2857143 3h9.4285714C13.4243661 3 14 3.6105208 14 4.3636364v7.2727272C14 12.3894792 13.4243661 13 12.7142857 13H3.2857143C2.5756339 13 2 12.3894792 2 11.6363636V4.3636364C2 3.6105208 2.5756339 3 3.2857143 3zm0 .909091c-.2366935 0-.4285714.2036118-.4285714.4545454v.4403409c0 .1521342.0739137.2960635.2008928.3835227l4.7142857 3.2244318c.1364383.0953124.3183687.095219.4553572 0l4.7142857-3.2386363c.1271273-.0810654.2008928-.2248714.2008928-.3835228v-.4261363c0-.2509336-.1918779-.4545455-.4285714-.4545455H3.2857143z" id="a"/></defs><use fill="#FFF" xlink:href="#a" fill-rule="evenodd"/></svg>