<?xml version="1.0" encoding="UTF-8"?>
<svg width="383px" height="28px" viewBox="0 0 383 28" version="1.1" xmlns="http://www.w3.org/2000/svg" xmlns:xlink="http://www.w3.org/1999/xlink">
    <!-- Generator: Sketch 46.2 (44496) - http://www.bohemiancoding.com/sketch -->
    <title>EN Mavic pro platinum</title>
    <desc>Created with Sketch.</desc>
    <defs></defs>
    <g id="Page-1" stroke="none" stroke-width="1" fill="none" fill-rule="evenodd">
        <g id="mavic_series" transform="translate(-101.000000, -206.000000)">
            <g id="EN-Mavic-pro-platinum" transform="translate(100.000000, 200.000000)">
                <rect id="Rectangle" fill-opacity="0" fill="#FFFFFF" x="0" y="0" width="384" height="40"></rect>
                <path d="M14.5153207,21.3050418 L27.4807425,6.03746554 L27.9144482,6.03746554 L27.9144482,33.6463173 L23.8463984,33.6463173 L23.8463984,19.460796 C23.8463984,18.8448289 23.8738482,18.0150098 23.9250876,16.9676829 L24.0056069,15.554797 L23.1601552,16.7721088 C22.5434513,17.6494507 22.0127566,18.3293906 21.568071,18.8137564 L14.6726991,27.0918425 L14.2023938,27.0918425 L7.32532177,18.8137564 C6.89344604,18.3293906 6.38288109,17.6622452 5.79362692,16.8104925 L4.90974566,15.554797 L4.9866049,16.9676829 C5.03967437,18.0150098 5.0671241,18.8448289 5.0671241,19.460796 L5.0671241,33.6463173 L1.00090431,33.6463173 L1.00090431,6.03746554 L1.45290984,6.03746554 L14.5153207,21.3050418 Z M67.2048917,20.9908437 L73.2749417,6.31364545 L77.4216807,6.31364545 L65.7518861,33.9206694 L65.2211913,33.9206694 L53.2366398,6.31364545 L57.774995,6.31364545 L63.943864,20.9908437 C64.2842406,21.7347565 64.6557269,22.7711166 65.0638129,24.0907849 C65.4169994,25.216707 65.5945076,25.8052572 65.5945076,25.8564354 C65.5945076,25.7778402 65.7518861,25.2039124 66.064813,24.1309964 C66.472899,22.8095003 66.8517052,21.7621734 67.2048917,20.9908437 Z M81.3764546,33.6472312 L81.3764546,6.31437657 L85.6000528,6.31437657 L85.6000528,33.6472312 L81.3764546,33.6472312 Z M109.636865,29.0159628 C110.905043,28.2958114 112.006692,27.2557957 112.936323,25.8959158 L116.19735,28.1715213 C113.657335,32.0574146 109.878423,34.0003613 104.864272,34.0003613 C100.920661,34.0003613 97.6065641,32.6916597 94.9219807,30.0742565 C92.1843277,27.3947082 90.8155013,24.0315644 90.8155013,19.9903084 C90.8155013,15.9600192 92.1843277,12.6114978 94.9219807,9.94291629 C97.6065641,7.31454629 100.920661,6.00036129 104.864272,6.00036129 C109.735684,6.00036129 113.382838,7.80622329 115.805734,11.4161195 L112.542876,13.7502144 C110.855633,11.134639 108.293658,9.82593737 104.864272,9.82593737 C102.04793,9.82593737 99.7220232,10.7873578 97.8902113,12.7101987 C96.0675493,14.6330397 95.1562184,17.0603522 95.1562184,19.9903084 C95.1562184,22.9074701 96.0675493,25.3274714 97.8902113,27.2484845 C99.7220232,29.211537 102.04793,30.194891 104.864272,30.194891 C106.683274,30.194891 108.273529,29.8019149 109.636865,29.0159628 Z M237.213688,6.46133133 L237.213688,31.540514 L249.966832,31.540514 L249.966832,32.9460888 L235.614284,32.9460888 L235.614284,6.46133133 L237.213688,6.46133133 Z M274.462054,7.86782 L274.462054,6.46041743 L292.908272,6.46041743 L292.908272,7.86782 L284.475715,7.86782 L284.475715,32.9470027 L282.876311,32.9470027 L282.876311,7.86782 L274.462054,7.86782 Z M297.451568,32.9471855 L297.451568,6.462428 L299.050972,6.462428 L299.050972,32.9471855 L297.451568,32.9471855 Z M324.990234,27.8878474 L324.990234,6.46060021 L326.474349,6.46060021 L326.474349,33.2505996 L325.998554,33.2505996 L309.038282,11.289636 C308.835154,11.0227779 308.567976,10.6480798 308.23858,10.1691974 L307.839643,9.54043571 L307.894543,10.244137 L307.951272,11.5382162 L307.951272,32.9471855 L306.468987,32.9471855 L306.468987,6.15535835 L306.944782,6.15535835 L323.884925,28.1163219 L325.103693,29.8655222 L325.046963,29.1618209 C325.008534,28.6299324 324.990234,28.204056 324.990234,27.8878474 Z M349.950638,24.0288227 L349.950638,6.46187967 L351.551872,6.46187967 L351.551872,24.142146 C351.551872,27.0337186 350.686291,29.2947017 348.962448,30.9287509 C347.337424,32.4768937 345.210985,33.2500512 342.584961,33.2500512 C339.944297,33.2500512 337.819688,32.4768937 336.207474,30.9287509 C334.507421,29.2947017 333.658309,27.0337186 333.658309,24.142146 L333.658309,6.46187967 L335.255883,6.46187967 L335.255883,24.0288227 C335.255883,26.5255914 335.929317,28.4648825 337.272523,29.8466959 C338.580961,31.1901256 340.352383,31.8609266 342.584961,31.8609266 C344.804729,31.8609266 346.574321,31.1901256 347.895568,29.8466959 C349.266225,28.4648825 349.950638,26.5255914 349.950638,24.0288227 Z M383.059952,6.15608947 L383.440588,6.15608947 L383.440588,32.9460888 L381.938173,32.9460888 L381.938173,11.917301 L382.015032,9.61793424 C382.015032,9.64169558 381.861314,9.89575916 381.557537,10.3782972 C381.18971,10.9467416 380.858484,11.4237962 380.567516,11.8039777 L371.238269,24.0282743 L370.821033,24.0282743 L361.625374,11.8039777 C361.347216,11.4493854 361.02331,10.9796419 360.655483,10.3947473 C360.338896,9.88844798 360.179688,9.62890101 360.179688,9.61793424 L360.254717,11.917301 L360.254717,32.9460888 L358.732172,32.9460888 L358.732172,6.15608947 L359.114639,6.15608947 L371.08638,21.8806146 L383.059952,6.15608947 Z M43.50626,6.03819666 L43.9985252,6.03819666 L55.9794167,33.6470484 L51.5600104,33.6470484 L49.5360504,28.66265 L37.9065154,28.66265 L35.9026852,33.6470484 L31.7980358,33.6470484 L43.50626,6.03819666 Z M45.0379549,17.6940489 C44.7634576,17.0524926 44.4688305,16.2208457 44.1540736,15.2027635 C43.8539566,14.3382162 43.6892582,13.8282613 43.6636385,13.6728987 L43.2299328,15.1241683 C42.902366,16.1970843 42.6077389,17.0524926 42.3460515,17.6940489 L39.361351,25.131349 L48.0061855,25.131349 L45.0379549,17.6940489 Z M136.749328,6.31346267 C143.128645,6.31346267 146.318304,9.03322244 146.318304,14.4763976 C146.318304,19.8921558 143.128645,22.6009488 136.749328,22.6009488 L131.151413,22.6009488 L131.151413,33.6463173 L129.5026,33.6463173 L129.5026,6.31346267 L136.749328,6.31346267 Z M136.57365,21.1478513 C141.942817,21.1478513 144.6274,18.9234242 144.6274,14.4763976 C144.6274,10.0019541 141.942817,7.76656013 136.57365,7.76656013 L131.151413,7.76656013 L131.151413,21.1478513 L136.57365,21.1478513 Z M168.223004,14.3596014 C168.223004,18.3496791 166.250283,20.8793482 162.310332,21.9522642 L169.185574,33.6465001 L167.220174,33.6465001 L160.580999,22.2648172 L159.676988,22.3452402 L153.056114,22.3635182 L153.056114,33.6465001 L151.4073,33.6465001 L151.4073,6.31364545 L158.734548,6.31364545 C161.668009,6.31364545 163.966466,6.99358539 165.62992,8.35529307 C167.357422,9.75538446 168.223004,11.7549928 168.223004,14.3596014 Z M158.577169,20.9122485 C163.880457,20.9122485 166.533931,18.7280328 166.533931,14.3596014 C166.533931,9.96375316 163.880457,7.76674291 158.577169,7.76674291 L153.056114,7.76674291 L153.056114,20.9122485 L158.577169,20.9122485 Z M186.658425,6.00090963 C190.587396,6.00090963 193.888683,7.28767769 196.558627,9.86486942 C199.2853,12.5206563 200.644976,15.8947669 200.644976,19.989029 C200.644976,24.0704964 199.2853,27.4391236 196.558627,30.0967383 C193.888683,32.6721023 190.587396,33.9606981 186.658425,33.9606981 C182.716644,33.9606981 179.415356,32.6721023 176.758223,30.0967383 C174.01874,27.4391236 172.651743,24.0704964 172.651743,19.989029 C172.651743,15.8947669 174.01874,12.5206563 176.758223,9.86486942 C179.415356,7.28767769 182.716644,6.00090963 186.658425,6.00090963 Z M195.440508,28.9178102 C197.782885,26.5380204 198.955903,23.5605415 198.955903,19.989029 C198.955903,16.4047219 197.782885,13.4290707 195.440508,11.0602477 C193.109111,8.6822857 190.18114,7.490563 186.658425,7.490563 C183.135709,7.490563 180.200418,8.6822857 177.858042,11.0602477 C175.513835,13.4290707 174.340816,16.4047219 174.340816,19.989029 C174.340816,23.5605415 175.513835,26.5380204 177.858042,28.9178102 C180.200418,31.2994278 183.135709,32.4893227 186.658425,32.4893227 C190.18114,32.4893227 193.109111,31.2994278 195.440508,28.9178102 Z M221.401912,6.46187967 C227.581761,6.46187967 230.67077,9.09573305 230.67077,14.370751 C230.67077,19.618352 227.581761,22.2412386 221.401912,22.2412386 L215.976016,22.2412386 L215.976016,32.9466372 L214.378442,32.9466372 L214.378442,6.46187967 L221.401912,6.46187967 Z M221.229894,20.8338361 C226.434362,20.8338361 229.034767,18.6788651 229.034767,14.370751 C229.034767,10.03522 226.434362,7.86745444 221.229894,7.86745444 L215.976016,7.86745444 L215.976016,20.8338361 L221.229894,20.8338361 Z M264.191281,6.15663781 L264.667076,6.15663781 L275.42188,32.9466372 L273.784046,32.9466372 L270.951234,25.8547904 L257.870524,25.8547904 L255.074311,32.9466372 L253.474907,32.9466372 L264.191281,6.15663781 Z M265.199601,11.4609005 C265.047713,11.0679244 264.877524,10.5616251 264.685376,9.9383468 C264.659756,9.82502347 264.628647,9.71170015 264.590217,9.59654903 L264.420029,9.04638257 L264.154681,9.9383468 C263.962533,10.5488305 263.797835,11.0368519 263.656926,11.4042388 L258.461608,24.4656658 L270.39858,24.4656658 L265.199601,11.4609005 Z" id="Combined-Shape" fill="#303233"></path>
            </g>
        </g>
    </g>
</svg>