<?xml version="1.0" encoding="UTF-8"?>
<svg width="241px" height="28px" viewBox="0 0 241 28" version="1.1" xmlns="http://www.w3.org/2000/svg" xmlns:xlink="http://www.w3.org/1999/xlink">
    <!-- Generator: Sketch 46.2 (44496) - http://www.bohemiancoding.com/sketch -->
    <title>EN Mavic Series</title>
    <desc>Created with Sketch.</desc>
    <defs></defs>
    <g id="Page-1" stroke="none" stroke-width="1" fill="none" fill-rule="evenodd">
        <g id="EN-Mavic-Series" transform="translate(-1.000000, -6.000000)" fill-rule="nonzero" fill="#FFFFFF">
            <rect id="Rectangle" fill-opacity="0" x="0" y="0" width="242" height="40"></rect>
            <path d="M1,33.6467482 L5.06207932,33.6467482 L5.06207932,19.4606215 C5.06207932,18.8453909 5.03560105,18.015219 4.98264449,16.9685483 L4.9047672,15.5558543 L5.78789564,16.8112362 C6.37664794,17.6616562 6.8859654,18.3298433 7.31740557,18.8126825 L14.1861823,27.0925957 L14.6565612,27.0925957 L21.5440285,18.8126825 C21.987929,18.3298433 22.5174946,17.6491958 23.1327251,16.7722975 L23.9769149,15.5558543 L23.8974801,16.9685483 C23.8460811,18.015219 23.8196028,18.8453909 23.8196028,19.4606215 L23.8196028,33.6467482 L27.8816821,33.6467482 L27.8816821,6.03924975 L27.450242,6.03924975 L14.499249,21.3047557 L1.45168827,6.03924975 L1,6.03924975 L1,33.6467482 Z M31.7615286,33.6467482 L35.860989,33.6467482 L37.8624353,28.6626018 L49.4786116,28.6626018 L51.5003059,33.6467482 L55.9143906,33.6467482 L43.946209,6.03924975 L43.4555821,6.03924975 L31.7615286,33.6467482 Z M39.3156255,25.1316456 L42.2967681,17.6943646 C42.5584358,17.0542133 42.8528119,16.1975632 43.1798965,15.1244141 L43.6128943,13.6727815 C43.637815,13.8285361 43.8013573,14.3394111 44.1019636,15.2022914 C44.4165879,16.2224839 44.710964,17.0542133 44.9850921,17.6943646 L47.9491016,25.1316456 L39.3156255,25.1316456 Z M65.1444067,33.9208763 L65.6739723,33.9208763 L77.3290872,6.31337781 L73.1891306,6.31337781 L67.1256049,20.991689 C66.7720421,21.7626741 66.3935584,22.8093449 65.987039,24.1301437 C65.6739723,25.2032927 65.5166602,25.7780271 65.5166602,25.8574619 C65.5166602,25.8045054 65.3406575,25.2157531 64.9870946,24.091205 C64.5805752,22.7704062 64.2083217,21.7361959 63.8687768,20.991689 L57.7071258,6.31337781 L53.1746676,6.31337781 L65.1444067,33.9208763 Z M81.2805807,33.6467482 L85.4984146,33.6467482 L85.4984146,6.31337781 L81.2805807,6.31337781 L81.2805807,33.6467482 Z M104.738777,34.0003111 C109.747844,34.0003111 113.521778,32.0580516 116.060577,28.1719749 L112.802192,25.8964006 C111.873894,27.256138 110.774267,28.2965786 109.506425,29.0161647 C108.14513,29.8011678 106.556433,30.1936693 104.738777,30.1936693 C101.92585,30.1936693 99.603549,29.2124155 97.7734327,27.2499078 C95.9542193,25.3278964 95.0446126,22.9074703 95.0446126,19.9901871 C95.0446126,17.0604435 95.9542193,14.6337872 97.7734327,12.7102182 C99.603549,10.7882068 101.92585,9.82564348 104.738777,9.82564348 C108.165378,9.82564348 110.722868,11.1339819 112.40969,13.7506588 L115.668076,11.4158977 C113.24765,7.80550664 109.60455,6.00031111 104.738777,6.00031111 C100.801302,6.00031111 97.4915169,7.31487973 94.8094232,9.94401696 C92.0759304,12.6120928 90.7084052,15.9608162 90.7084052,19.9901871 C90.7084052,24.0320183 92.0759304,27.3947596 94.8094232,30.0752958 C97.4915169,32.6919727 100.801302,34.0003111 104.738777,34.0003111 L104.738777,34.0003111 Z M136.746343,33.9613725 C139.126272,33.9613725 141.062302,33.332124 142.554431,32.0767421 C144.07148,30.7824216 144.830005,29.0815816 144.830005,26.9757798 C144.830005,23.5491791 142.644768,20.840607 138.27741,18.8516211 L135.744841,17.6943646 C132.579908,16.2302716 130.997441,14.3518714 130.997441,12.0638367 C130.997441,8.98924141 132.696724,7.45194375 136.098404,7.45194375 C137.484619,7.45194375 138.676142,7.77902836 139.669856,8.43319758 C140.440841,8.95653295 141.154197,9.74153601 141.808366,10.7882068 L143.104244,9.94401696 C142.35818,8.754052 141.487512,7.8382151 140.493798,7.19650625 C139.250876,6.39904282 137.786783,6.00031111 136.098404,6.00031111 C134.201313,6.00031111 132.625076,6.54233703 131.369695,7.62950397 C130.048896,8.78053028 129.388496,10.2711016 129.388496,12.1027754 C129.388496,15.0325189 131.291817,17.3812979 135.098459,19.1459973 L137.629471,20.3048113 C141.356678,22.030572 143.22106,24.2547473 143.22106,26.9757798 C143.22106,28.6626018 142.580909,30.0161091 141.299049,31.0378591 C140.082606,32.0315733 138.551538,32.5284304 136.707404,32.5284304 C134.705958,32.5284304 133.031596,32.0440336 131.684319,31.0767977 C130.650108,30.3307333 129.75452,29.2451239 128.995995,27.818412 L127.583301,28.5052897 C128.354286,30.0893137 129.400957,31.3384654 130.721756,32.2543023 C132.357179,33.3913107 134.364855,33.9613725 136.746343,33.9613725 L136.746343,33.9613725 Z M150.568004,33.6467482 L167.088891,33.6467482 L167.088891,32.1951156 L152.215887,32.1951156 L152.215887,20.617878 L165.028258,20.617878 L165.028258,19.1864935 L152.215887,19.1864935 L152.215887,7.76656799 L166.520387,7.76656799 L166.520387,6.31337781 L150.568004,6.31337781 L150.568004,33.6467482 Z M172.189854,33.6467482 L173.837737,33.6467482 L173.837737,22.3638868 L180.449519,22.3451962 L181.352895,22.2657614 L187.984925,33.6467482 L189.945875,33.6467482 L183.078656,21.9526947 C187.016132,20.8795457 188.98487,18.3485338 188.98487,14.3596592 C188.98487,11.7554427 188.121989,9.75399638 186.394671,8.35532029 C184.734327,6.9940253 182.438505,6.31337781 179.507204,6.31337781 L172.189854,6.31337781 L172.189854,33.6467482 Z M173.837737,20.9122541 L173.837737,7.76656799 L179.351449,7.76656799 C184.648662,7.76656799 187.298048,9.96426505 187.298048,14.3596592 C187.298048,18.728575 184.648662,20.9122541 179.351449,20.9122541 L173.837737,20.9122541 Z M195.534349,33.6467482 L197.182233,33.6467482 L197.182233,6.31337781 L195.534349,6.31337781 L195.534349,33.6467482 Z M204.817322,33.6467482 L221.33821,33.6467482 L221.33821,32.1951156 L206.465206,32.1951156 L206.465206,20.617878 L219.277577,20.617878 L219.277577,19.1864935 L206.465206,19.1864935 L206.465206,7.76656799 L220.768148,7.76656799 L220.768148,6.31337781 L204.817322,6.31337781 L204.817322,33.6467482 Z M233.16154,33.9613725 C235.54147,33.9613725 237.477499,33.332124 238.969628,32.0767421 C240.486677,30.7824216 241.245202,29.0815816 241.245202,26.9757798 C241.245202,23.5491791 239.059966,20.840607 234.692607,18.8516211 L232.160038,17.6943646 C228.995105,16.2302716 227.412638,14.3518714 227.412638,12.0638367 C227.412638,8.98924141 229.111921,7.45194375 232.513601,7.45194375 C233.899816,7.45194375 235.091339,7.77902836 236.085053,8.43319758 C236.856038,8.95653295 237.569394,9.74153601 238.223563,10.7882068 L239.519442,9.94401696 C238.773377,8.754052 237.902709,7.8382151 236.908995,7.19650625 C235.666073,6.39904282 234.20198,6.00031111 232.513601,6.00031111 C230.61651,6.00031111 229.040274,6.54233703 227.784892,7.62950397 C226.464093,8.78053028 225.803694,10.2711016 225.803694,12.1027754 C225.803694,15.0325189 227.707015,17.3812979 231.513656,19.1459973 L234.044668,20.3048113 C237.771875,22.030572 239.636257,24.2547473 239.636257,26.9757798 C239.636257,28.6626018 238.996106,30.0161091 237.714246,31.0378591 C236.496245,32.0315733 234.966735,32.5284304 233.122601,32.5284304 C231.121155,32.5284304 229.446793,32.0440336 228.099516,31.0767977 C227.065306,30.3307333 226.169717,29.2451239 225.411192,27.818412 L223.998498,28.5052897 C224.769483,30.0893137 225.816154,31.3384654 227.136953,32.2543023 C228.772376,33.3913107 230.780052,33.9613725 233.16154,33.9613725 L233.16154,33.9613725 Z" id="Fill-1"></path>
        </g>
    </g>
</svg>