<?xml version="1.0" encoding="UTF-8"?>
<svg width="200px" height="28px" viewBox="0 0 200 28" version="1.1" xmlns="http://www.w3.org/2000/svg" xmlns:xlink="http://www.w3.org/1999/xlink">
    <!-- Generator: Sketch 46.2 (44496) - http://www.bohemiancoding.com/sketch -->
    <title>EN Mavic pro</title>
    <desc>Created with Sketch.</desc>
    <defs></defs>
    <g id="Page-1" stroke="none" stroke-width="1" fill="none" fill-rule="evenodd">
        <g id="mavic_series" transform="translate(-101.000000, -309.000000)">
            <g id="EN-Mavic-pro" transform="translate(100.000000, 303.000000)">
                <rect id="Rectangle" fill-opacity="0" fill="#FFFFFF" x="0" y="0" width="201" height="40"></rect>
                <path d="M14.5144164,21.3046805 L27.4798382,6.03710425 L27.9135439,6.03710425 L27.9135439,33.645956 L23.8454941,33.645956 L23.8454941,19.4604348 C23.8454941,18.8444677 23.8729438,18.0146485 23.9241833,16.9673216 L24.0047025,15.5544357 L23.1592509,16.7717475 C22.542547,17.6490894 22.0118522,18.3290293 21.5671666,18.8133951 L14.6717948,27.0914812 L14.2014895,27.0914812 L7.32441747,18.8133951 C6.89254174,18.3290293 6.38197679,17.6618839 5.79272261,16.8101312 L4.90884135,15.5544357 L4.98570059,16.9673216 C5.03877007,18.0146485 5.0662198,18.8444677 5.0662198,19.4604348 L5.0662198,33.645956 L1,33.645956 L1,6.03710425 L1.45200553,6.03710425 L14.5144164,21.3046805 Z M43.5053557,6.03783537 L43.9976209,6.03783537 L55.9785124,33.6466871 L51.5591061,33.6466871 L49.5351461,28.6622887 L37.9056111,28.6622887 L35.9017809,33.6466871 L31.7971315,33.6466871 L43.5053557,6.03783537 Z M45.0370506,17.6936876 C44.7625533,17.0521313 44.4679262,16.2204844 44.1531693,15.2024022 C43.8530523,14.337855 43.6883539,13.8279 43.6627342,13.6725374 L43.2290285,15.123807 C42.9014617,16.196723 42.6068346,17.0521313 42.3451472,17.6936876 L39.3604467,25.1309877 L48.0052812,25.1309877 L45.0370506,17.6936876 Z M67.2039874,20.9904824 L73.2740374,6.31328416 L77.4207764,6.31328416 L65.7509818,33.9203081 L65.220287,33.9203081 L53.2357355,6.31328416 L57.7740907,6.31328416 L63.9429597,20.9904824 C64.2833363,21.7343952 64.6548226,22.7707553 65.0629086,24.0904237 C65.4160951,25.2163457 65.5936033,25.8048959 65.5936033,25.8560742 C65.5936033,25.7774789 65.7509818,25.2035511 66.0639087,24.1306352 C66.4719947,22.809139 66.8508009,21.7618121 67.2039874,20.9904824 Z M81.3755503,33.6468699 L81.3755503,6.31401528 L85.5991485,6.31401528 L85.5991485,33.6468699 L81.3755503,33.6468699 Z M109.635961,29.0156015 C110.904138,28.2954501 112.005787,27.2554344 112.935418,25.8955545 L116.196446,28.17116 C113.656431,32.0570533 109.877518,34 104.863368,34 C100.919757,34 97.6056598,32.6912984 94.9210764,30.0738952 C92.1834234,27.3943469 90.814597,24.0312031 90.814597,19.9899471 C90.814597,15.9596579 92.1834234,12.6111365 94.9210764,9.942555 C97.6056598,7.314185 100.919757,6 104.863368,6 C109.73478,6 113.381934,7.805862 115.80483,11.4157582 L112.541972,13.7498531 C110.854729,11.1342777 108.292754,9.82557608 104.863368,9.82557608 C102.047026,9.82557608 99.7211189,10.7869965 97.889307,12.7098375 C96.066645,14.6326784 95.1553141,17.0599909 95.1553141,19.9899471 C95.1553141,22.9071088 96.066645,25.3271101 97.889307,27.2481232 C99.7211189,29.2111757 102.047026,30.1945297 104.863368,30.1945297 C106.68237,30.1945297 108.272624,29.8015536 109.635961,29.0156015 Z M136.748424,6.31310138 C143.127741,6.31310138 146.317399,9.03286115 146.317399,14.4760363 C146.317399,19.8917945 143.127741,22.6005875 136.748424,22.6005875 L131.150509,22.6005875 L131.150509,33.645956 L129.501695,33.645956 L129.501695,6.31310138 L136.748424,6.31310138 Z M136.572746,21.14749 C141.941912,21.14749 144.626496,18.9230629 144.626496,14.4760363 C144.626496,10.0015928 141.941912,7.76619884 136.572746,7.76619884 L131.150509,7.76619884 L131.150509,21.14749 L136.572746,21.14749 Z M168.2221,14.3592402 C168.2221,18.3493178 166.249379,20.8789869 162.309428,21.9519029 L169.18467,33.6461388 L167.21927,33.6461388 L160.580095,22.2644559 L159.676084,22.3448789 L153.05521,22.3631569 L153.05521,33.6461388 L151.406396,33.6461388 L151.406396,6.31328416 L158.733643,6.31328416 C161.667104,6.31328416 163.965562,6.9932241 165.629015,8.35493178 C167.356518,9.75502317 168.2221,11.7546315 168.2221,14.3592402 Z M158.576265,20.9118872 C163.879553,20.9118872 166.533026,18.7276715 166.533026,14.3592402 C166.533026,9.96339187 163.879553,7.76638162 158.576265,7.76638162 L153.05521,7.76638162 L153.05521,20.9118872 L158.576265,20.9118872 Z M186.65752,6.00054834 C190.586491,6.00054834 193.887779,7.2873164 196.557722,9.86450813 C199.284395,12.5202951 200.644072,15.8944056 200.644072,19.9886677 C200.644072,24.0701351 199.284395,27.4387623 196.557722,30.096377 C193.887779,32.671741 190.586491,33.9603368 186.65752,33.9603368 C182.715739,33.9603368 179.414452,32.671741 176.757318,30.096377 C174.017835,27.4387623 172.650839,24.0701351 172.650839,19.9886677 C172.650839,15.8944056 174.017835,12.5202951 176.757318,9.86450813 C179.414452,7.2873164 182.715739,6.00054834 186.65752,6.00054834 Z M195.439604,28.9174489 C197.78198,26.5376591 198.954999,23.5601802 198.954999,19.9886677 C198.954999,16.4043606 197.78198,13.4287094 195.439604,11.0598864 C193.108207,8.68192441 190.180236,7.49020171 186.65752,7.49020171 C183.134805,7.49020171 180.199514,8.68192441 177.857137,11.0598864 C175.512931,13.4287094 174.339912,16.4043606 174.339912,19.9886677 C174.339912,23.5601802 175.512931,26.5376591 177.857137,28.9174489 C180.199514,31.2990665 183.134805,32.4889614 186.65752,32.4889614 C190.180236,32.4889614 193.108207,31.2990665 195.439604,28.9174489 Z" id="Combined-Shape" fill="#303233"></path>
            </g>
        </g>
    </g>
</svg>