<svg xmlns="http://www.w3.org/2000/svg" width="72" height="72" viewBox="0 0 72 72"><g fill="none" fill-rule="evenodd"><path stroke="#85898C" stroke-width="2" d="M46.7410586 21.2899099v-6.1023211C46.7410586 9.0088541 41.7322045 4 35.5534698 4 29.3747351 4 24.365881 9.0088541 24.365881 15.1875888v6.1023211"/><path stroke="#85898C" stroke-linejoin="round" stroke-width="4" d="M13.94 21.383h43.837l3.94 45.971H10z"/><path fill="#85898C" d="M42.5169455 40.7401623c-.3783092 1.4276988-.7549184 2.8558039-1.1238274 4.2860418-.1845045.7150174-.3656089 1.4305426-.578014 2.1380442-.206305.6873917-.4597112 1.421097-.8290202 2.0454169-.3852094.6515393-.8840215 1.1602782-1.5743383 1.4859971-.2760067.1301047-.5588136.2193803-.8555208.2832647-.4210102.0905959-.8439205.1278703-1.2717309.152449-.7334486.0419776-2.0363075.0505613-3.120063.0518694l-1.2459432-.0002744.6493158-2.4440594c.491512 0 .9829239.0017266 1.4743358-.0120863.4742116-.0134065.9960243-.039204 1.4630356-.1513318.5114125-.1228936.8973218-.3337425 1.2353301-.7563543.3079075-.3849312.5149125-.865232.6845166-1.3182118.3098076-.8272466.6270153-2.0116973.8506207-2.8635227.2529062-.9642578.4960121-1.9309532.741018-2.8972424zm4.3753964-.0000203l-1.888846 7.1100558h-3.5001851l1.8887459-7.1100558h3.5002852zm-8.0426656-2.6662531c-.366709 1.3878853-.7329179 2.7758722-1.1038269 4.1626403-.2585063.966086-.5152125 1.9325783-.7958193 2.8924688-.122403.4184477-.244606.8356766-.4050099 1.2419364-.1289031.3263283-.2730066.6167025-.5394131.86056-.1990048.182106-.4160101.295351-.6687163.3760951-.3251079.103901-.6537159.1419878-.989624.1699182-.4831118.0402197-.9663235.0504778-1.4502353.0583999-1.112927.0181801-3.1339762.015641-4.2469033.0107659-.3999097-.0018282-.7998195-.0042658-1.1997292-.01168-.289907-.0052814-.579514-.0125941-.8690211-.0309773-.1933047-.012391-.3851094-.0288445-.576114-.0645954-.1296032-.0241724-.2544062-.0566732-.3760092-.1106042-.4005097-.1777387-.6046147-.533013-.616515-.9656797-.0069001-.2476154.0355009-.4834493.084302-.7229395.0693018-.339227.1556039-.673782.241106-1.0087433.163204-.6399609.4619112-1.8207552.6947168-2.4423328.1824045-.4871056.4233103-.9718752.8810215-1.2802265.2559062-.1723557.5248127-.2639673.82132-.3246016.2198053-.0448917.4407107-.068658.663616-.0855177.3733092-.0281335.7469182-.0369697 1.1209273-.043673.531513-.0094455 1.0630259-.0114768 1.5945388-.0131018.8839215-.0024376 1.767843-.0018282 2.6516645-.0018282-.1574038.5924285-.3148076 1.1849585-.4722115 1.7774885-.7880191 0-1.5758383-.0022344-2.3638575.0024376-.2300055.0014219-.4597111-.0003047-.6895167.01493-.081602.005383-.161304.010766-.2402059.0387979-.1038025.0365634-.1551037.1027837-.2007048.1978485-.0667017.139144-.1052026.2859054-.1477036.4327684-.0649016.2242554-.125003.4498312-.1852045.6755086-.0927023.3476569-.1854046.6953138-.2734067 1.044291-.0325008.1291907-.0644016.2583813-.0918022.3887907-.0193005.0914085-.036701.1825123-.0453011.2757489-.0094003.1019712-.0123003.2244586.0485012.3191171.0618015.0960805.166304.1184248.2638064.1327455.1102026.016352.2206053.0199067.331408.0232583.1814044.0055861.3628089.0063986.5442133.0073127.496312.0024376.9926241.0025391 1.4889362-.0006094.2287055-.0014219.457211-.003047.6857167-.0123909.1574038-.0063986.3128076-.0118831.4678113-.04997.1178029-.028946.2099051-.074447.289607-.1722542.0539014-.0662203.0891022-.1396518.121303-.2176537.080002-.1933797.1359033-.3935642.1942048-.5936472.2237054-.7675265.4252103-1.5409438.6311153-2.313447.41181-1.5450063.81912-3.0911298 1.2267298-4.637355z"/></g></svg>