<svg xmlns="http://www.w3.org/2000/svg" width="72" height="72" viewBox="0 0 72 72"><g fill="none" fill-rule="evenodd" transform="translate(3.003 4.085)"><circle cx="32.936" cy="16.725" r="7.509" stroke="#85898C" stroke-linejoin="round" stroke-width="2"/><path stroke="#85898C" stroke-linejoin="round" stroke-width="4" d="M32.9357436 0c-9.216 0-16.7253333 7.424-16.7253333 16.7253333 0 16.4693334 16.7253333 31.744 16.7253333 31.744s16.7253333-15.2746666 16.7253333-31.744C49.6610769 7.424 42.1517436 0 32.9357436 0z"/><path fill="#85898C" fill-rule="nonzero" d="M65.8744103 60.672l-7.2533334-25.6c-.256-.9386667-1.1093333-1.536-2.048-1.536h-4.7786666c-.6826667 1.4506667-1.4506667 2.9013333-2.304 4.2666667h5.4613333L61.0104103 59.136h-56.064l6.0586666-21.3333333h5.2906667c-.768-1.3653334-1.536-2.816-2.304-4.2666667h-4.608c-.9386667 0-1.792.5973333-2.048 1.536l-7.2533333 25.6c-.1706667.6826667-.0853334 1.3653333.3413333 1.8773333s1.024.8533334 1.7066667.8533334h61.696c.6826666 0 1.28-.3413334 1.7066666-.8533334.4266667-.512.512-1.1946666.3413334-1.8773333z"/></g></svg>