<svg xmlns="http://www.w3.org/2000/svg" width="72" height="72" viewBox="0 0 72 72"><g fill="none" fill-rule="evenodd"><path d="M4 4h64v64H4z"/><path stroke="#85898C" stroke-width="4" d="M59 31C59 18.297 48.703 8 36 8S13 18.297 13 31"/><path stroke="#85898C" stroke-linecap="round" stroke-linejoin="round" stroke-width="2" d="M43 64.996c5.523 0 10-4.477 10-10V52"/><path stroke="#85898C" stroke-width="4" d="M18 53V29h-3.333C9.825 29 6 32.347 6 36.333v9.334C6 49.653 9.825 53 14.667 53H18zm36 0V29h3.333C62.175 29 66 32.347 66 36.333v9.334C66 49.653 62.175 53 57.333 53H54z"/></g></svg>