<svg width="182" height="24" viewBox="0 0 182 24" xmlns="http://www.w3.org/2000/svg" xmlns:xlink="http://www.w3.org/1999/xlink"><defs><path d="M9.9399338 0l9.5494747 23.5h-1.4531518l-2.518528-6.2212113H3.9045907L1.420949 23.5H0L9.5172719 0h.4226619zM25.1249.2661127V23.5h-1.4196072V.2661127H25.1249zm12.8824654 0c2.5238952 0 4.5016844.5785634 5.9333676 1.7356901 1.4866964 1.1889014 2.2300446 2.890169 2.2300446 5.1038028 0 3.3906198-1.6960147 5.5420282-5.0867021 6.4542254L47 23.5h-1.6906475l-5.713315-9.6740563-.7782346.0675211-5.6958719.0158873V23.5h-1.4196071V.2661127zM9.7198812 2.535352l-.2361539.7837747c-.1690647.5335493-.316661.961183-.440105 1.2842253L4.429228 16.0607606h10.5987495L10.4135834 4.653662c-.1355201-.3455493-.2884835-.7903944-.4575482-1.3345352-.0228104-.1006198-.049646-.1999155-.0845324-.3005352l-.1516216-.4832395zm28.1519642-1.034H33.121931v11.1740845h4.7499144c4.5634064 0 6.8457805-1.856169 6.8457805-5.569831 0-3.736169-2.2823741-5.6042535-6.8457805-5.6042535z" id="a"/><path d="M0 24h15.967959v-3.2369577H8.6369753c-.3652675 0-.8010253.0229859-1.3072733.0689577l-.6459468.0676056c0 .012169.1935277-.1419718.5818648-.4597183.4293496-.3637183.7856456-.6976901 1.0650433-1.0046197l3.7782761-4.1901972C14.7029798 12.3488451 16 9.6405634 16 7.1202254c0-2.1011831-.6459468-3.8102536-1.9378404-5.1272113C12.7382249.6638873 10.9836591 0 8.798462 0 6.6683755 0 4.880487.6530704 3.4386415 1.9592113 2.0826658 3.1963943 1.1996155 4.860845.7907722 6.9498592l3.4706825.8342535c.6997757-2.9300282 2.2121115-4.3943662 4.5370073-4.3943662 2.4223006 0 3.6334508 1.2547605 3.6334508 3.7642817 0 1.8510422-1.0599166 3.9400563-3.1810317 6.2683943L0 23.6930704V24z" id="b"/><path d="M90.1601397 0c4.2288793 0 7.3951241 1.5473104 9.4987343 4.6419314L96.8269869 6.643155c-1.4660296-2.2428658-3.6887632-3.3642988-6.6668472-3.3642988-2.4447362 0-4.463065.8250542-6.0536326 2.4724926-1.5810919 1.6487735-2.3716378 3.7287646-2.3716378 6.2386383 0 2.5005285.7905459 4.5765144 2.3716378 6.2239528 1.5905676 1.6808144 3.6088964 2.5232242 6.0536326 2.5232242 1.5797382 0 2.9604862-.337765 4.1435978-1.0106247 1.1018911-.6167882 2.0575853-1.5085943 2.8643753-2.6740836L100 19.0029482C97.7935105 22.3338711 94.5135571 24 90.1601397 24c-3.4220893 0-6.2986477-1.1214329-8.6296753-3.3642988-2.3756988-2.2989376-3.564225-5.1799522-3.564225-8.645714 0-3.4524114 1.1885262-6.3227457 3.564225-8.6096679C83.861492 1.1267731 86.7380504 0 90.1601397 0zM49.284583.2683429l5.3551365 12.5814096c.2951011.6381487.6186293 1.5246147.9719383 2.656728.3072842.9638983.4602494 1.4685431.4602494 1.5139345 0-.068087.1367211-.5607165.4088097-1.4805585.3533091-1.1321133.682252-2.0292596.9895361-2.690104L62.740108.2683429h3.598067L56.2086283 23.931913h-.4602493L45.3453901.2683429h3.9391929zM.3925656.0320409l11.3397317 13.0860544L22.9881012.0320409h.3749679v23.6649052h-3.5303833V11.5374089c0-.5273405.0230125-1.2389164.0676838-2.1360627l.0690374-1.2108806-.7336917 1.0426656c-.5347014.7516271-.9949507 1.3350392-1.380748 1.7489014l-5.9859488 7.0970685h-.4088098L5.490504 10.9820326c-.3749679-.4138622-.8176194-.987929-1.3293084-1.7168604L3.393662 8.1904656l.0676837 1.2108806c.046025.8971463.0690374 1.6087222.0690374 2.1360627v12.1595372H0V.0320409h.3925656zm36.9323028 0l10.4016352 23.6649052h-3.8363137l-1.7570695-4.2721255H32.0374156l-1.7394718 4.2721255h-3.5628714L36.8984609.0320409h.4264075zM73.438198.268343v23.428603h-3.6657507V.2683429h3.6657507zM37.035182 6.5764032l-.3763215 1.2429215c-.2842717.921177-.5401162 1.6554486-.7675335 2.2041497l-2.5909331 6.3748123h7.503418l-2.5760426-6.3748123c-.2382467-.548701-.4940912-1.262947-.7675335-2.1360627-.2612592-.7396117-.403395-1.1788396-.4250538-1.3110085z" id="c"/></defs><g fill="#141414" fill-rule="evenodd"><use xlink:href="#a" transform="translate(109 .25)"/><use xlink:href="#b" transform="translate(166)"/><use xlink:href="#c"/></g></svg>