<?xml version="1.0" encoding="utf-8"?>
<!-- Generator: Adobe Illustrator 21.0.2, SVG Export Plug-In . SVG Version: 6.00 Build 0)  -->
<svg version="1.1" id="Ebene_1" xmlns="http://www.w3.org/2000/svg" xmlns:xlink="http://www.w3.org/1999/xlink" x="0px" y="0px"
	 viewBox="0 0 850.4 129.9" style="enable-background:new 0 0 850.4 129.9;" xml:space="preserve">
<style type="text/css">
	.st0{fill:#303233;}
</style>
<g>
	<path class="st0" d="M196.9,0.2l-54.2,128.1h19l9.3-23.1h53.9l9.4,23.1h20.5L199.2,0.2H196.9z M204,54.2l13.7,34.5h-40l13.8-34.5
		c1.2-3,2.6-6.9,4.1-11.9l2-6.7c0.1,0.7,0.9,3.1,2.3,7.1C201.4,47.4,202.8,51.3,204,54.2z"/>
	<rect x="372.4" y="1.5" class="st0" width="19.6" height="126.8"/>
	<path class="st0" d="M62.6,71L2.1,0.2H0v128.1h18.8V62.4c0-2.9-0.1-6.7-0.4-11.6l-0.4-6.6l4.1,5.8c2.7,3.9,5.1,7,7.1,9.3l31.9,38.4
		h2.2l31.9-38.4c2.1-2.2,4.5-5.4,7.4-9.5l3.9-5.6l-0.4,6.6c-0.2,4.9-0.4,8.7-0.4,11.6v65.8h18.8V0.2h-2L62.6,71z"/>
	<path class="st0" d="M306.7,69.5c-1.6,3.6-3.4,8.4-5.3,14.6c-1.5,5-2.2,7.6-2.2,8c0-0.2-0.8-3-2.5-8.2c-1.9-6.1-3.6-10.9-5.2-14.4
		L263.1,1.5h-21l55.5,128.1h2.5L354.1,1.5h-19.2L306.7,69.5z"/>
	<path class="st0" d="M503.3,106.8c-6.3,3.6-13.7,5.5-22.1,5.5c-13,0-23.8-4.6-32.3-13.7c-8.4-8.9-12.7-20.1-12.7-33.7
		c0-13.6,4.2-24.8,12.7-33.8c8.5-8.9,19.3-13.4,32.3-13.4c15.9,0,27.8,6.1,35.6,18.2l15.1-10.8C520.7,8.4,503.8,0,481.2,0
		c-18.3,0-33.6,6.1-46.1,18.3c-12.7,12.4-19,27.9-19,46.6c0,18.7,6.3,34.3,19,46.8c12.4,12.1,27.8,18.2,46.1,18.2
		c23.2,0,40.7-9,52.5-27l-15.1-10.6C514.3,98.6,509.2,103.4,503.3,106.8z"/>
	<rect x="725" y="1.5" class="st0" width="7.6" height="126.8"/>
	<path class="st0" d="M818.5,74c18.3-5,27.4-16.7,27.4-35.2c0-12.1-4-21.4-12-27.9c-7.7-6.3-18.4-9.5-31.9-9.5h-34v126.8h7.6V75.9
		l30.7-0.1l4.2-0.4l30.8,52.8h9.1L818.5,74z M801.2,69.2h-25.6v-61h25.6c24.6,0,36.9,10.2,36.9,30.6C838.1,59,825.8,69.2,801.2,69.2
		z"/>
	<path class="st0" d="M648.6,0l-51.2,128.2h7.7l13.4-34h62.5l13.6,34h7.8L650.8,0H648.6z M653.4,25.4l24.8,62.3h-57.1L646,25.1
		c0.7-1.8,1.5-4.1,2.4-7l1.3-4.3l0.8,2.6c0.2,0.5,0.3,1.1,0.5,1.6C651.8,21.1,652.7,23.5,653.4,25.4z"/>
</g>
</svg>
