<?xml version="1.0" encoding="utf-8"?>
<!-- Generator: Adobe Illustrator 22.1.0, SVG Export Plug-In . SVG Version: 6.00 Build 0)  -->
<svg version="1.1" id="图层_1" xmlns="http://www.w3.org/2000/svg" xmlns:xlink="http://www.w3.org/1999/xlink" x="0px" y="0px"
	 viewBox="0 0 175.9 18" style="enable-background:new 0 0 175.9 18;" xml:space="preserve">
<style type="text/css">
	.st0{fill:#2F3233;}
</style>
<g>
	<rect x="51.5" y="0.2" class="st0" width="2.7" height="17.5"/>
	<path class="st0" d="M8.7,9.8L0.3,0H0v17.7h2.6V8.6c0-0.4,0-0.9-0.1-1.6L2.5,6.1l0.6,0.8c0.4,0.5,0.7,1,1,1.3l4.4,5.3h0.3l4.4-5.3
		c0.3-0.3,0.6-0.7,1-1.3l0.5-0.8L14.7,7c0,0.7-0.1,1.2-0.1,1.6v9.1h2.6V0H17L8.7,9.8z"/>
	<path class="st0" d="M27.3,0l-7.5,17.7h2.6l1.3-3.2h7.5l1.3,3.2h2.8L27.6,0H27.3z M28.2,7.5l1.9,4.8h-5.5l1.9-4.8
		c0.2-0.4,0.4-1,0.6-1.7l0.3-0.9c0,0.1,0.1,0.4,0.3,1C27.9,6.6,28.1,7.1,28.2,7.5z"/>
	<path class="st0" d="M69.7,14.8c-0.9,0.5-1.9,0.8-3.1,0.8c-1.8,0-3.3-0.6-4.5-1.9c-1.2-1.2-1.8-2.8-1.8-4.7c0-1.9,0.6-3.4,1.8-4.7
		c1.2-1.2,2.7-1.9,4.5-1.9c2.2,0,3.8,0.8,4.9,2.5l2.1-1.5c-1.6-2.3-3.9-3.5-7-3.5c-2.5,0-4.7,0.8-6.4,2.5c-1.8,1.7-2.6,3.9-2.6,6.5
		c0,2.6,0.9,4.8,2.6,6.5c1.7,1.7,3.8,2.5,6.4,2.5c3.2,0,5.6-1.2,7.3-3.7l-2.1-1.5C71.2,13.6,70.5,14.3,69.7,14.8z"/>
	<path class="st0" d="M42.5,9.6c-0.2,0.5-0.5,1.2-0.7,2c-0.2,0.7-0.3,1.1-0.3,1.1c0,0-0.1-0.4-0.3-1.1c-0.3-0.8-0.5-1.5-0.7-2
		l-4-9.4h-2.9l7.7,17.7h0.3L49,0.2h-2.7L42.5,9.6z"/>
	<path class="st0" d="M89.2,14.4l2.9-3.1c2-2.1,3-4.1,3-6c0-1.6-0.5-2.8-1.5-3.8c-1-1-2.4-1.5-4.1-1.5c-1.7,0-3.1,0.5-4.2,1.4
		c-1.1,0.9-1.7,2.1-2.1,3.7L86,5.8c0.5-2.2,1.7-3.2,3.5-3.2c1.9,0,2.8,0.9,2.8,2.8c0,1.4-0.8,2.9-2.5,4.6l-7.2,7.6v0.2h12.5v-2.4
		h-5.7c-0.3,0-0.6,0-1,0.1l-0.5,0c0,0,0.2-0.1,0.5-0.3C88.7,14.8,89,14.6,89.2,14.4z"/>
	<path class="st0" d="M175.7,0l-7.9,10.4L159.8,0h-0.3v17.8h1V3.8l0-1.5c0,0,0.1,0.2,0.3,0.5c0.2,0.4,0.5,0.7,0.6,0.9l6.1,8.1h0.3
		l6.2-8.1c0.2-0.3,0.4-0.6,0.7-0.9c0.2-0.3,0.3-0.5,0.3-0.5l0,1.5v13.9h1V0H175.7z"/>
	<path class="st0" d="M146.8,0c-2.5,0-4.6,0.8-6.3,2.5c-1.8,1.7-2.6,3.9-2.6,6.5c0,2.6,0.9,4.8,2.6,6.5c1.7,1.7,3.8,2.5,6.3,2.5
		c2.5,0,4.6-0.8,6.4-2.5c1.7-1.7,2.6-3.9,2.6-6.5c0-2.6-0.9-4.8-2.6-6.5C151.5,0.8,149.4,0,146.8,0z M152.5,14.7
		c-1.5,1.5-3.4,2.3-5.6,2.3c-2.3,0-4.1-0.8-5.6-2.3c-1.5-1.5-2.3-3.4-2.3-5.7c0-2.3,0.8-4.2,2.3-5.7c1.5-1.5,3.4-2.3,5.6-2.3
		c2.3,0,4.1,0.8,5.6,2.3c1.5,1.5,2.3,3.4,2.3,5.7C154.7,11.3,154,13.2,152.5,14.7z"/>
	<polygon class="st0" points="116.2,0.5 116.2,0.2 105.3,0.2 105.3,1.1 114.6,1.1 103.9,17.5 103.9,17.8 116.4,17.8 116.4,16.8 
		105.5,16.8 	"/>
	<path class="st0" d="M126.2,0c-2.5,0-4.6,0.8-6.3,2.5c-1.8,1.7-2.6,3.9-2.6,6.5c0,2.6,0.9,4.8,2.6,6.5c1.7,1.7,3.8,2.5,6.3,2.5
		c2.5,0,4.6-0.8,6.3-2.5c1.7-1.7,2.6-3.9,2.6-6.5c0-2.6-0.9-4.8-2.6-6.5C130.8,0.8,128.7,0,126.2,0z M131.8,14.7
		c-1.5,1.5-3.4,2.3-5.6,2.3c-2.3,0-4.1-0.8-5.6-2.3c-1.5-1.5-2.3-3.4-2.3-5.7c0-2.3,0.8-4.2,2.3-5.7c1.5-1.5,3.4-2.3,5.6-2.3
		c2.3,0,4.1,0.8,5.6,2.3c1.5,1.5,2.3,3.4,2.3,5.7C134.1,11.3,133.3,13.2,131.8,14.7z"/>
</g>
</svg>
