<?xml version="1.0" encoding="utf-8"?>
<!-- Generator: Adobe Illustrator 22.1.0, SVG Export Plug-In . SVG Version: 6.00 Build 0)  -->
<svg version="1.1" id="图层_1" xmlns="http://www.w3.org/2000/svg" xmlns:xlink="http://www.w3.org/1999/xlink" x="0px" y="0px"
	 viewBox="0 0 149.6 18" style="enable-background:new 0 0 149.6 18;" xml:space="preserve">
<style type="text/css">
	.st0{fill:#323232;}
</style>
<path class="st0" d="M140.6,17c-2.3,0-4.1-0.8-5.6-2.3c-1.5-1.5-2.3-3.4-2.3-5.7c0-2.3,0.8-4.2,2.3-5.7c1.5-1.5,3.4-2.3,5.6-2.3
	c2.3,0,4.1,0.8,5.6,2.3c1.5,1.5,2.3,3.4,2.3,5.7c0,2.3-0.8,4.2-2.3,5.7C144.8,16.2,142.9,17,140.6,17 M140.6,18
	c2.5,0,4.6-0.8,6.3-2.5c1.7-1.7,2.6-3.9,2.6-6.5c0-2.6-0.9-4.8-2.6-6.5c-1.7-1.7-3.8-2.5-6.3-2.5c-2.5,0-4.6,0.8-6.3,2.5
	c-1.8,1.7-2.6,3.9-2.6,6.5c0,2.6,0.9,4.8,2.6,6.5C136,17.1,138.1,18,140.6,18 M119.1,9.6V1.1h3.5c3.4,0,5.1,1.4,5.1,4.2
	c0,2.8-1.7,4.2-5.1,4.2H119.1z M118,17.8h1.1v-7.2l4.2,0l0.6-0.1l4.3,7.3h1.3l-4.4-7.5c2.5-0.7,3.8-2.3,3.8-4.9c0-1.7-0.6-3-1.7-3.9
	c-1.1-0.9-2.5-1.3-4.4-1.3H118V17.8z M105,9.7V1.1h3.5c3.4,0,5.2,1.4,5.2,4.3c0,2.9-1.7,4.3-5.2,4.3H105z M104,17.8h1.1v-7.1h3.6
	c4.1,0,6.1-1.7,6.1-5.2c0-3.5-2-5.2-6.1-5.2H104V17.8z M82.7,17.8h12.5v-2.4h-5.7c-0.3,0-0.6,0-1,0.1l-0.5,0.1c0,0,0.2-0.1,0.5-0.3
	c0.3-0.3,0.6-0.5,0.8-0.7l2.9-3.1c2-2.1,3-4.1,3-6c0-1.6-0.5-2.8-1.5-3.8c-1-1-2.4-1.5-4.1-1.5c-1.7,0-3.1,0.5-4.2,1.4
	c-1.1,0.9-1.7,2.1-2.1,3.7L86,5.8c0.5-2.2,1.7-3.3,3.5-3.3c1.9,0,2.8,0.9,2.8,2.8c0,1.4-0.8,2.9-2.5,4.6l-7.2,7.6V17.8z M66.6,18
	c3.2,0,5.6-1.2,7.3-3.7l-2.1-1.5c-0.6,0.9-1.3,1.5-2.1,2c-0.9,0.5-1.9,0.8-3.1,0.8c-1.8,0-3.3-0.6-4.5-1.9c-1.2-1.2-1.8-2.8-1.8-4.7
	c0-1.9,0.6-3.4,1.8-4.7c1.2-1.2,2.7-1.9,4.5-1.9c2.2,0,3.8,0.8,4.9,2.5l2.1-1.5c-1.6-2.3-3.9-3.5-7-3.5c-2.5,0-4.7,0.8-6.4,2.5
	c-1.8,1.7-2.6,3.9-2.6,6.5c0,2.6,0.9,4.8,2.6,6.5C62,17.1,64.1,18,66.6,18 M51.5,17.8h2.7V0.2h-2.7V17.8z M41.2,17.9h0.3L49,0.2
	h-2.7l-3.9,9.4c-0.2,0.5-0.5,1.2-0.7,2c-0.2,0.7-0.3,1.1-0.3,1.1c0,0-0.1-0.4-0.3-1.1c-0.3-0.8-0.5-1.5-0.7-2l-4-9.4h-2.9L41.2,17.9
	z M24.6,12.3l1.9-4.8c0.2-0.4,0.4-1,0.6-1.7l0.3-0.9c0,0.1,0.1,0.4,0.3,1c0.2,0.7,0.4,1.2,0.6,1.6l1.9,4.8H24.6z M19.8,17.8h2.6
	l1.3-3.2h7.5l1.3,3.2h2.8L27.6,0h-0.3L19.8,17.8z M0,17.8h2.6V8.6c0-0.4,0-0.9-0.1-1.6L2.5,6.1l0.6,0.8c0.4,0.5,0.7,1,1,1.3l4.4,5.3
	h0.3l4.4-5.3c0.3-0.3,0.6-0.7,1-1.3l0.5-0.8L14.7,7c0,0.7-0.1,1.2-0.1,1.6v9.1h2.6V0H17L8.7,9.8L0.3,0H0V17.8z"/>
</svg>
